<svg width="99" height="26" viewBox="0 0 99 26" fill="none" xmlns="http://www.w3.org/2000/svg">
<path d="M28.0082 13.4113C25.1883 9.2865 21.0307 5.8431 16.0045 3.48136C20.7122 1.26971 26.1736 0 32.0003 0V13.0025C30.6243 13.0025 29.2865 13.1422 28.0082 13.4113Z" fill="url(#paint0_linear)"/>
<path d="M16.0168 25.4633L16.0045 3.48136C21.0307 5.8431 25.1878 9.28485 28.0077 13.4131C21.3083 14.8122 16.3077 19.6479 16.0168 25.4633Z" fill="url(#paint1_linear)"/>
<path d="M3.9984 13.4118C3.99836 13.4118 3.99845 13.4117 3.9984 13.4118C2.72223 13.1426 1.38447 13.0029 0 13.0029V0.000427246C5.82655 0.000427246 11.2964 1.27009 16.0039 3.48165C16.004 3.48162 16.0039 3.48169 16.0039 3.48165L16.0169 25.4617C16.006 25.6136 16.0044 25.7693 16.0029 25.9223C16.0026 25.9483 16.0023 25.9742 16.002 26C16.002 19.9482 10.8973 14.8541 3.9984 13.4118Z" fill="url(#paint2_linear)"/>
<path opacity="0.23" fill-rule="evenodd" clip-rule="evenodd" d="M16.0043 3.48138L16.017 25.4633C16.3079 19.6478 21.3086 14.8122 28.008 13.4131C25.1881 9.2848 21.0304 5.84312 16.0043 3.48138Z" fill="#382DAC"/>
<path opacity="0.23" fill-rule="evenodd" clip-rule="evenodd" d="M16.0169 25.4616L16.0041 3.48138C10.978 5.84312 6.82032 9.2848 3.99829 13.4114C10.8973 14.8536 16.002 19.948 16.002 25.9998C16.0041 25.8221 16.0041 25.6393 16.0169 25.4616Z" fill="#2D42AC"/>
<path d="M46.496 10H44.792V1.996H48.536C49.376 1.996 50.032 2.244 50.504 2.74C50.984 3.228 51.224 3.84 51.224 4.576C51.224 5.304 50.984 5.916 50.504 6.412C50.024 6.908 49.368 7.156 48.536 7.156H46.496V10ZM48.308 5.656C48.652 5.656 48.932 5.56 49.148 5.368C49.372 5.168 49.484 4.904 49.484 4.576C49.484 4.248 49.372 3.988 49.148 3.796C48.932 3.596 48.652 3.496 48.308 3.496H46.496V5.656H48.308ZM53.0003 3.58C52.7523 3.58 52.5363 3.492 52.3523 3.316C52.1763 3.132 52.0883 2.916 52.0883 2.668C52.0883 2.42 52.1763 2.208 52.3523 2.032C52.5363 1.856 52.7523 1.768 53.0003 1.768C53.2563 1.768 53.4723 1.856 53.6483 2.032C53.8243 2.208 53.9123 2.42 53.9123 2.668C53.9123 2.916 53.8243 3.132 53.6483 3.316C53.4723 3.492 53.2563 3.58 53.0003 3.58ZM53.7683 10H52.2443V4.204H53.7683V10ZM60.1994 9.268C59.6394 9.852 58.8954 10.144 57.9674 10.144C57.0394 10.144 56.2954 9.852 55.7354 9.268C55.1834 8.676 54.9074 7.952 54.9074 7.096C54.9074 6.24 55.1834 5.52 55.7354 4.936C56.2954 4.352 57.0394 4.06 57.9674 4.06C58.8954 4.06 59.6394 4.352 60.1994 4.936C60.7594 5.52 61.0394 6.24 61.0394 7.096C61.0394 7.952 60.7594 8.676 60.1994 9.268ZM56.8874 8.308C57.1514 8.628 57.5114 8.788 57.9674 8.788C58.4234 8.788 58.7834 8.628 59.0474 8.308C59.3194 7.98 59.4554 7.576 59.4554 7.096C59.4554 6.624 59.3194 6.228 59.0474 5.908C58.7834 5.58 58.4234 5.416 57.9674 5.416C57.5114 5.416 57.1514 5.58 56.8874 5.908C56.6234 6.228 56.4914 6.624 56.4914 7.096C56.4914 7.576 56.6234 7.98 56.8874 8.308ZM67.6061 10H66.0821V6.496C66.0821 5.776 65.7261 5.416 65.0141 5.416C64.4621 5.416 64.0221 5.644 63.6941 6.1V10H62.1701V4.204H63.6941V4.96C64.1981 4.36 64.8741 4.06 65.7221 4.06C66.3461 4.06 66.8141 4.224 67.1261 4.552C67.4461 4.88 67.6061 5.332 67.6061 5.908V10ZM71.8433 10.144C70.9473 10.144 70.2073 9.864 69.6233 9.304C69.0393 8.744 68.7473 8.008 68.7473 7.096C68.7473 6.24 69.0273 5.52 69.5873 4.936C70.1553 4.352 70.8753 4.06 71.7473 4.06C72.6113 4.06 73.3113 4.356 73.8473 4.948C74.3833 5.532 74.6513 6.3 74.6513 7.252V7.588H70.3433C70.3913 7.972 70.5633 8.292 70.8593 8.548C71.1553 8.804 71.5393 8.932 72.0113 8.932C72.2673 8.932 72.5433 8.88 72.8393 8.776C73.1433 8.672 73.3833 8.532 73.5593 8.356L74.2313 9.34C73.6473 9.876 72.8513 10.144 71.8433 10.144ZM73.1753 6.556C73.1513 6.228 73.0193 5.932 72.7793 5.668C72.5473 5.404 72.2033 5.272 71.7473 5.272C71.3153 5.272 70.9793 5.404 70.7393 5.668C70.4993 5.924 70.3593 6.22 70.3193 6.556H73.1753ZM78.4761 10.144C77.5801 10.144 76.8401 9.864 76.2561 9.304C75.6721 8.744 75.3801 8.008 75.3801 7.096C75.3801 6.24 75.6601 5.52 76.2201 4.936C76.7881 4.352 77.5081 4.06 78.3801 4.06C79.2441 4.06 79.9441 4.356 80.4801 4.948C81.0161 5.532 81.2841 6.3 81.2841 7.252V7.588H76.9761C77.0241 7.972 77.1961 8.292 77.4921 8.548C77.7881 8.804 78.1721 8.932 78.6441 8.932C78.9001 8.932 79.1761 8.88 79.4721 8.776C79.7761 8.672 80.0161 8.532 80.1921 8.356L80.8641 9.34C80.2801 9.876 79.4841 10.144 78.4761 10.144ZM79.8081 6.556C79.7841 6.228 79.6521 5.932 79.4121 5.668C79.1801 5.404 78.8361 5.272 78.3801 5.272C77.9481 5.272 77.6121 5.404 77.3721 5.668C77.1321 5.924 76.9921 6.22 76.9521 6.556H79.8081ZM83.9089 10H82.3849V4.204H83.9089V4.996C84.1249 4.724 84.4009 4.5 84.7369 4.324C85.0729 4.148 85.4129 4.06 85.7569 4.06V5.548C85.6529 5.524 85.5129 5.512 85.3369 5.512C85.0809 5.512 84.8089 5.576 84.5209 5.704C84.2329 5.832 84.0289 5.988 83.9089 6.172V10ZM88.7971 10.144C88.2931 10.144 87.8091 10.064 87.3451 9.904C86.8891 9.744 86.5091 9.524 86.2051 9.244L86.8651 8.176C87.0891 8.384 87.3931 8.568 87.7771 8.728C88.1611 8.888 88.5251 8.968 88.8691 8.968C89.1891 8.968 89.4291 8.912 89.5891 8.8C89.7571 8.688 89.8411 8.536 89.8411 8.344C89.8411 8.2 89.7531 8.084 89.5771 7.996C89.4091 7.9 89.1971 7.832 88.9411 7.792C88.6931 7.752 88.4171 7.692 88.1131 7.612C87.8171 7.532 87.5411 7.436 87.2851 7.324C87.0371 7.212 86.8251 7.036 86.6491 6.796C86.4811 6.548 86.3971 6.244 86.3971 5.884C86.3971 5.372 86.6091 4.94 87.0331 4.588C87.4571 4.236 88.0371 4.06 88.7731 4.06C89.6691 4.06 90.4491 4.324 91.1131 4.852L90.5011 5.896C90.3171 5.704 90.0691 5.544 89.7571 5.416C89.4531 5.288 89.1291 5.224 88.7851 5.224C88.5131 5.224 88.2931 5.28 88.1251 5.392C87.9571 5.496 87.8731 5.632 87.8731 5.8C87.8731 5.928 87.9571 6.036 88.1251 6.124C88.2931 6.204 88.5051 6.264 88.7611 6.304C89.0171 6.344 89.2931 6.408 89.5891 6.496C89.8851 6.576 90.1611 6.676 90.4171 6.796C90.6731 6.908 90.8851 7.092 91.0531 7.348C91.2211 7.604 91.3051 7.916 91.3051 8.284C91.3051 8.828 91.0811 9.276 90.6331 9.628C90.1931 9.972 89.5811 10.144 88.7971 10.144ZM50.456 22H44.792V13.996H50.456V15.496H46.496V17.188H50.372V18.688H46.496V20.5H50.456V22ZM57.2721 22H55.7361V21.256C55.2641 21.848 54.6681 22.144 53.9481 22.144C53.1961 22.144 52.5801 21.876 52.1001 21.34C51.6201 20.796 51.3801 20.052 51.3801 19.108C51.3801 18.18 51.6201 17.44 52.1001 16.888C52.5801 16.336 53.1961 16.06 53.9481 16.06C54.6841 16.06 55.2801 16.356 55.7361 16.948V13.996H57.2721V22ZM54.4161 20.788C54.6721 20.788 54.9241 20.728 55.1721 20.608C55.4201 20.48 55.6081 20.32 55.7361 20.128V18.076C55.6081 17.884 55.4201 17.728 55.1721 17.608C54.9241 17.48 54.6721 17.416 54.4161 17.416C53.9841 17.416 53.6321 17.572 53.3601 17.884C53.0881 18.196 52.9521 18.604 52.9521 19.108C52.9521 19.604 53.0881 20.008 53.3601 20.32C53.6321 20.632 53.9841 20.788 54.4161 20.788ZM64.2193 22H62.6953V21.268C62.1753 21.852 61.4953 22.144 60.6553 22.144C60.0313 22.144 59.5633 21.984 59.2513 21.664C58.9393 21.344 58.7833 20.896 58.7833 20.32V16.204H60.3073V19.72C60.3073 20.432 60.6633 20.788 61.3753 20.788C61.9113 20.788 62.3513 20.568 62.6953 20.128V16.204H64.2193V22ZM68.4326 22.144C67.5366 22.144 66.8006 21.86 66.2246 21.292C65.6486 20.724 65.3606 19.992 65.3606 19.096C65.3606 18.208 65.6486 17.48 66.2246 16.912C66.8006 16.344 67.5366 16.06 68.4326 16.06C69.4566 16.06 70.2206 16.408 70.7246 17.104L69.7286 18.04C69.4486 17.624 69.0406 17.416 68.5046 17.416C68.0406 17.416 67.6606 17.572 67.3646 17.884C67.0766 18.188 66.9326 18.592 66.9326 19.096C66.9326 19.6 67.0766 20.008 67.3646 20.32C67.6606 20.632 68.0406 20.788 68.5046 20.788C69.0246 20.788 69.4326 20.58 69.7286 20.164L70.7246 21.088C70.2206 21.792 69.4566 22.144 68.4326 22.144ZM76.7248 22H75.2008V21.4C74.7848 21.896 74.1728 22.144 73.3648 22.144C72.8448 22.144 72.3768 21.976 71.9608 21.64C71.5528 21.296 71.3488 20.824 71.3488 20.224C71.3488 19.6 71.5488 19.132 71.9488 18.82C72.3568 18.508 72.8288 18.352 73.3648 18.352C74.1888 18.352 74.8008 18.588 75.2008 19.06V18.28C75.2008 17.984 75.0848 17.748 74.8528 17.572C74.6208 17.396 74.3128 17.308 73.9288 17.308C73.2968 17.308 72.7328 17.536 72.2368 17.992L71.6608 16.972C72.3488 16.364 73.1928 16.06 74.1928 16.06C74.9368 16.06 75.5448 16.232 76.0168 16.576C76.4888 16.92 76.7248 17.48 76.7248 18.256V22ZM73.9768 21.112C74.5448 21.112 74.9528 20.944 75.2008 20.608V19.888C74.9528 19.552 74.5448 19.384 73.9768 19.384C73.6648 19.384 73.4048 19.464 73.1968 19.624C72.9888 19.776 72.8848 19.988 72.8848 20.26C72.8848 20.524 72.9888 20.732 73.1968 20.884C73.4048 21.036 73.6648 21.112 73.9768 21.112ZM80.1805 22.144C79.6445 22.144 79.2365 22.008 78.9565 21.736C78.6765 21.464 78.5365 21.072 78.5365 20.56V17.536H77.5765V16.204H78.5365V14.62H80.0725V16.204H81.2485V17.536H80.0725V20.152C80.0725 20.336 80.1205 20.488 80.2165 20.608C80.3125 20.728 80.4405 20.788 80.6005 20.788C80.8405 20.788 81.0165 20.732 81.1285 20.62L81.4525 21.772C81.1725 22.02 80.7485 22.144 80.1805 22.144ZM83.0472 15.58C82.7992 15.58 82.5832 15.492 82.3992 15.316C82.2232 15.132 82.1352 14.916 82.1352 14.668C82.1352 14.42 82.2232 14.208 82.3992 14.032C82.5832 13.856 82.7992 13.768 83.0472 13.768C83.3032 13.768 83.5192 13.856 83.6952 14.032C83.8712 14.208 83.9592 14.42 83.9592 14.668C83.9592 14.916 83.8712 15.132 83.6952 15.316C83.5192 15.492 83.3032 15.58 83.0472 15.58ZM83.8152 22H82.2912V16.204H83.8152V22ZM90.2463 21.268C89.6863 21.852 88.9423 22.144 88.0143 22.144C87.0863 22.144 86.3423 21.852 85.7823 21.268C85.2303 20.676 84.9543 19.952 84.9543 19.096C84.9543 18.24 85.2303 17.52 85.7823 16.936C86.3423 16.352 87.0863 16.06 88.0143 16.06C88.9423 16.06 89.6863 16.352 90.2463 16.936C90.8063 17.52 91.0863 18.24 91.0863 19.096C91.0863 19.952 90.8063 20.676 90.2463 21.268ZM86.9343 20.308C87.1983 20.628 87.5583 20.788 88.0143 20.788C88.4703 20.788 88.8303 20.628 89.0943 20.308C89.3663 19.98 89.5023 19.576 89.5023 19.096C89.5023 18.624 89.3663 18.228 89.0943 17.908C88.8303 17.58 88.4703 17.416 88.0143 17.416C87.5583 17.416 87.1983 17.58 86.9343 17.908C86.6703 18.228 86.5383 18.624 86.5383 19.096C86.5383 19.576 86.6703 19.98 86.9343 20.308ZM97.6529 22H96.1289V18.496C96.1289 17.776 95.7729 17.416 95.0609 17.416C94.5089 17.416 94.0689 17.644 93.7409 18.1V22H92.2169V16.204H93.7409V16.96C94.2449 16.36 94.9209 16.06 95.7689 16.06C96.3929 16.06 96.8609 16.224 97.1729 16.552C97.4929 16.88 97.6529 17.332 97.6529 17.908V22Z" fill="#0D192E"/>
<defs>
<linearGradient id="paint0_linear" x1="29.3807" y1="0.7027" x2="16.1789" y2="13.2033" gradientUnits="userSpaceOnUse">
<stop stop-color="#6CE8F9"/>
<stop offset="1" stop-color="#2CA6EB"/>
</linearGradient>
<linearGradient id="paint1_linear" x1="29.3807" y1="0.7027" x2="16.1789" y2="13.2033" gradientUnits="userSpaceOnUse">
<stop stop-color="#6CE8F9"/>
<stop offset="1" stop-color="#2CA6EB"/>
</linearGradient>
<linearGradient id="paint2_linear" x1="2.94864e-07" y1="6.23681" x2="14.9221" y2="16.2925" gradientUnits="userSpaceOnUse">
<stop stop-color="#FF7474"/>
<stop offset="1" stop-color="#2E75FF"/>
</linearGradient>
</defs>
</svg>
