<svg width="18" height="14" viewBox="0 0 18 14" fill="none" xmlns="http://www.w3.org/2000/svg">
    <path d="M14.8337 0.333496H3.16699C2.50395 0.333496 1.86807 0.596888 1.39923 1.06573C0.930384 1.53457 0.666992 2.17045 0.666992 2.8335V11.1668C0.666992 11.8299 0.930384 12.4658 1.39923 12.9346C1.86807 13.4034 2.50395 13.6668 3.16699 13.6668H14.8337C15.4967 13.6668 16.1326 13.4034 16.6014 12.9346C17.0703 12.4658 17.3337 11.8299 17.3337 11.1668V2.8335C17.3337 2.17045 17.0703 1.53457 16.6014 1.06573C16.1326 0.596888 15.4967 0.333496 14.8337 0.333496ZM14.492 2.00016L9.59199 6.90016C9.51452 6.97827 9.42236 7.04026 9.32081 7.08257C9.21926 7.12488 9.11034 7.14666 9.00033 7.14666C8.89032 7.14666 8.78139 7.12488 8.67984 7.08257C8.5783 7.04026 8.48613 6.97827 8.40866 6.90016L3.50866 2.00016H14.492ZM15.667 11.1668C15.667 11.3878 15.5792 11.5998 15.4229 11.7561C15.2666 11.9124 15.0547 12.0002 14.8337 12.0002H3.16699C2.94598 12.0002 2.73402 11.9124 2.57774 11.7561C2.42146 11.5998 2.33366 11.3878 2.33366 11.1668V3.17516L7.23366 8.07516C7.70241 8.54333 8.33782 8.8063 9.00033 8.8063C9.66283 8.8063 10.2982 8.54333 10.767 8.07516L15.667 3.17516V11.1668Z" fill="#0263E0"/>
</svg>
