<svg width="25" height="24" viewBox="0 0 25 24" fill="none" xmlns="http://www.w3.org/2000/svg">
<path d="M8.50011 10.9999C8.30233 10.9999 8.10899 11.0585 7.94454 11.1684C7.78009 11.2783 7.65192 11.4345 7.57623 11.6172C7.50054 11.7999 7.48074 12.001 7.51932 12.195C7.55791 12.3889 7.65315 12.5671 7.793 12.707C7.93286 12.8468 8.11104 12.9421 8.30502 12.9807C8.499 13.0192 8.70007 12.9994 8.88279 12.9238C9.06552 12.8481 9.2217 12.7199 9.33158 12.5554C9.44146 12.391 9.50011 12.1977 9.50011 11.9999C9.50011 11.7347 9.39475 11.4803 9.20722 11.2928C9.01968 11.1052 8.76533 10.9999 8.50011 10.9999ZM12.5001 10.9999C12.3023 10.9999 12.109 11.0585 11.9445 11.1684C11.7801 11.2783 11.6519 11.4345 11.5762 11.6172C11.5005 11.7999 11.4807 12.001 11.5193 12.195C11.5579 12.3889 11.6532 12.5671 11.793 12.707C11.9329 12.8468 12.111 12.9421 12.305 12.9807C12.499 13.0192 12.7001 12.9994 12.8828 12.9238C13.0655 12.8481 13.2217 12.7199 13.3316 12.5554C13.4415 12.391 13.5001 12.1977 13.5001 11.9999C13.5001 11.7347 13.3948 11.4803 13.2072 11.2928C13.0197 11.1052 12.7653 10.9999 12.5001 10.9999ZM16.5001 10.9999C16.3023 10.9999 16.109 11.0585 15.9445 11.1684C15.7801 11.2783 15.6519 11.4345 15.5762 11.6172C15.5005 11.7999 15.4807 12.001 15.5193 12.195C15.5579 12.3889 15.6532 12.5671 15.793 12.707C15.9329 12.8468 16.111 12.9421 16.305 12.9807C16.499 13.0192 16.7001 12.9994 16.8828 12.9238C17.0655 12.8481 17.2217 12.7199 17.3316 12.5554C17.4415 12.391 17.5001 12.1977 17.5001 11.9999C17.5001 11.7347 17.3948 11.4803 17.2072 11.2928C17.0197 11.1052 16.7653 10.9999 16.5001 10.9999ZM12.5001 1.99988C11.1869 1.99988 9.88653 2.25854 8.67328 2.76108C7.46002 3.26363 6.35763 4.00022 5.42904 4.92881C3.55368 6.80417 2.50011 9.34771 2.50011 11.9999C2.49137 14.309 3.2909 16.5484 4.76011 18.3299L2.76011 20.3299C2.62135 20.4705 2.52736 20.6491 2.48998 20.8431C2.45261 21.0371 2.47353 21.2378 2.55011 21.4199C2.63317 21.5998 2.76781 21.751 2.93696 21.8543C3.1061 21.9575 3.30211 22.0082 3.50011 21.9999H12.5001C15.1523 21.9999 17.6958 20.9463 19.5712 19.0709C21.4465 17.1956 22.5001 14.652 22.5001 11.9999C22.5001 9.34771 21.4465 6.80417 19.5712 4.92881C17.6958 3.05345 15.1523 1.99988 12.5001 1.99988ZM12.5001 19.9999H5.91011L6.84011 19.0699C6.9346 18.9773 7.00977 18.8668 7.06126 18.7449C7.11276 18.6231 7.13956 18.4922 7.14011 18.3599C7.13635 18.0961 7.02852 17.8445 6.84011 17.6599C5.5307 16.3519 4.71528 14.6304 4.5328 12.7887C4.35032 10.9469 4.81205 9.09888 5.83934 7.5594C6.86662 6.01992 8.3959 4.88424 10.1666 4.34585C11.9374 3.80747 13.84 3.89968 15.5503 4.60679C17.2607 5.3139 18.673 6.59215 19.5465 8.22377C20.4201 9.85539 20.701 11.7394 20.3412 13.5549C19.9815 15.3703 19.0034 17.0049 17.5736 18.1801C16.1439 19.3553 14.3509 19.9984 12.5001 19.9999Z" fill="#606F90"/>
</svg>
