<svg width="8" height="14" viewBox="0 0 8 14" fill="none" xmlns="http://www.w3.org/2000/svg">
<path d="M0.459957 6.28997L6.11996 0.639975C6.21292 0.546247 6.32352 0.471853 6.44538 0.421084C6.56724 0.370316 6.69795 0.344177 6.82996 0.344177C6.96197 0.344177 7.09267 0.370316 7.21453 0.421084C7.33639 0.471853 7.44699 0.546247 7.53996 0.639976C7.72621 0.827338 7.83075 1.08079 7.83075 1.34498C7.83075 1.60916 7.72621 1.86261 7.53996 2.04998L2.58996 7.04998L7.53996 12C7.72621 12.1873 7.83075 12.4408 7.83075 12.705C7.83075 12.9692 7.72621 13.2226 7.53996 13.41C7.44734 13.5045 7.3369 13.5796 7.21502 13.6311C7.09315 13.6826 6.96226 13.7094 6.82996 13.71C6.69765 13.7094 6.56677 13.6826 6.44489 13.6311C6.32302 13.5796 6.21257 13.5045 6.11996 13.41L0.459956 7.75998C0.358452 7.66633 0.277443 7.55268 0.222036 7.42618C0.166628 7.29968 0.138024 7.16308 0.138024 7.02497C0.138024 6.88687 0.166628 6.75027 0.222036 6.62377C0.277443 6.49727 0.358452 6.38362 0.459957 6.28997Z" fill="#606F90"/>
</svg>
