<svg width="12" height="14" viewBox="0 0 12 14" fill="none" xmlns="http://www.w3.org/2000/svg">
<path d="M6.00008 0.333344C4.58559 0.333344 3.22904 0.895247 2.22885 1.89544C1.22865 2.89563 0.666748 4.25219 0.666748 5.66668C0.666748 9.26668 5.36675 13.3333 5.56675 13.5067C5.6875 13.61 5.84118 13.6667 6.00008 13.6667C6.15898 13.6667 6.31266 13.61 6.43341 13.5067C6.66675 13.3333 11.3334 9.26668 11.3334 5.66668C11.3334 4.25219 10.7715 2.89563 9.77132 1.89544C8.77112 0.895247 7.41457 0.333344 6.00008 0.333344ZM6.00008 12.1C4.58008 10.7667 2.00008 7.89334 2.00008 5.66668C2.00008 4.60581 2.42151 3.5884 3.17165 2.83825C3.9218 2.0881 4.93922 1.66668 6.00008 1.66668C7.06095 1.66668 8.07836 2.0881 8.82851 2.83825C9.57865 3.5884 10.0001 4.60581 10.0001 5.66668C10.0001 7.89334 7.42008 10.7733 6.00008 12.1ZM6.00008 3.00001C5.47266 3.00001 4.95709 3.15641 4.51856 3.44942C4.08003 3.74244 3.73824 4.15892 3.5364 4.64619C3.33457 5.13346 3.28176 5.66964 3.38465 6.18692C3.48755 6.7042 3.74152 7.17936 4.11446 7.5523C4.4874 7.92524 4.96256 8.17921 5.47984 8.2821C5.99712 8.385 6.5333 8.33219 7.02057 8.13036C7.50784 7.92852 7.92432 7.58673 8.21733 7.1482C8.51035 6.70967 8.66675 6.19409 8.66675 5.66668C8.66675 4.95943 8.3858 4.28116 7.8857 3.78106C7.3856 3.28096 6.70732 3.00001 6.00008 3.00001ZM6.00008 7.00001C5.73637 7.00001 5.47859 6.92181 5.25932 6.7753C5.04006 6.62879 4.86916 6.42056 4.76824 6.17692C4.66733 5.93329 4.64092 5.6652 4.69237 5.40656C4.74381 5.14792 4.8708 4.91034 5.05727 4.72387C5.24374 4.5374 5.48132 4.41041 5.73996 4.35896C5.9986 4.30752 6.26669 4.33392 6.51033 4.43484C6.75396 4.53575 6.9622 4.70665 7.10871 4.92592C7.25522 5.14518 7.33341 5.40297 7.33341 5.66668C7.33341 6.0203 7.19294 6.35944 6.94289 6.60949C6.69284 6.85953 6.3537 7.00001 6.00008 7.00001Z" fill="#606F90"/>
</svg>
