<svg width="20" height="20" viewBox="0 0 20 20" fill="none" xmlns="http://www.w3.org/2000/svg">
<path d="M4.43243 12.0863L3.73626 14.6852L1.19176 14.739C0.431329 13.3286 0 11.7149 0 10C0 8.34176 0.403282 6.77801 1.11813 5.40109H1.11867L3.38399 5.81641L4.37634 8.06813C4.16864 8.67364 4.05544 9.32364 4.05544 10C4.05552 10.7341 4.18848 11.4374 4.43243 12.0863Z" fill="#FBBB00"/>
<path d="M19.8253 8.13186C19.9401 8.73679 20 9.36151 20 9.99999C20 10.7159 19.9247 11.4143 19.7813 12.0879C19.2945 14.3802 18.0225 16.3819 16.2605 17.7984L16.2599 17.7978L13.4066 17.6522L13.0028 15.1313C14.172 14.4456 15.0858 13.3725 15.5671 12.0879H10.2198V8.13186H15.6451H19.8253Z" fill="#518EF8"/>
<path d="M16.2599 17.7978L16.2605 17.7984C14.5468 19.1758 12.3698 20 10 20C6.19178 20 2.8808 17.8715 1.19177 14.739L4.43244 12.0863C5.27694 14.3401 7.45112 15.9445 10 15.9445C11.0956 15.9445 12.122 15.6484 13.0028 15.1313L16.2599 17.7978Z" fill="#28B446"/>
<path d="M16.383 2.30217L13.1434 4.95436C12.2319 4.3846 11.1544 4.05546 10 4.05546C7.39339 4.05546 5.17854 5.73347 4.37635 8.06812L1.11865 5.40108H1.1181C2.7824 2.19229 6.13514 -1.90735e-05 10 -1.90735e-05C12.4264 -1.90735e-05 14.6511 0.864279 16.383 2.30217Z" fill="#F14336"/>
</svg>
