<svg width="64" height="64" viewBox="0 0 64 64" fill="none" xmlns="http://www.w3.org/2000/svg">
<path fill-rule="evenodd" clip-rule="evenodd" d="M17.1848 9.82752C21.5702 6.89735 26.7259 5.33337 32.0001 5.33337C35.502 5.33337 38.9696 6.02313 42.2049 7.36325C45.4403 8.70338 48.38 10.6676 50.8562 13.1439C53.3325 15.6201 55.2967 18.5598 56.6368 21.7951C57.977 25.0305 58.6667 28.4981 58.6667 32C58.6667 37.2742 57.1027 42.4299 54.1726 46.8153C51.2424 51.2006 47.0776 54.6185 42.2049 56.6368C37.3323 58.6552 31.9705 59.1833 26.7976 58.1543C21.6248 57.1254 16.8733 54.5856 13.1439 50.8562C9.41447 47.1268 6.87472 42.3753 5.84578 37.2025C4.81684 32.0296 5.34493 26.6678 7.36327 21.7951C9.3816 16.9225 12.7995 12.7577 17.1848 9.82752ZM39.2534 23.44L27.8134 34.9067L23.4133 30.5067C23.1743 30.2276 22.8801 30.0008 22.5493 29.8408C22.2184 29.6807 21.8581 29.5908 21.4908 29.5766C21.1236 29.5624 20.7574 29.6243 20.4152 29.7583C20.073 29.8924 19.7622 30.0958 19.5023 30.3556C19.2424 30.6155 19.039 30.9263 18.905 31.2685C18.7709 31.6107 18.709 31.9769 18.7232 32.3442C18.7374 32.7114 18.8274 33.0718 18.9874 33.4026C19.1475 33.7335 19.3742 34.0276 19.6533 34.2667L25.92 40.56C26.1692 40.8072 26.4647 41.0027 26.7896 41.1354C27.1145 41.2681 27.4624 41.3354 27.8134 41.3334C28.5129 41.3304 29.1833 41.0527 29.68 40.56L43.0133 27.2267C43.2633 26.9788 43.4617 26.6839 43.5971 26.3589C43.7324 26.034 43.8021 25.6854 43.8021 25.3334C43.8021 24.9813 43.7324 24.6328 43.5971 24.3078C43.4617 23.9829 43.2633 23.6879 43.0133 23.44C42.5137 22.9434 41.8378 22.6646 41.1333 22.6646C40.4289 22.6646 39.753 22.9434 39.2534 23.44Z" fill="url(#paint0_linear)"/>
<defs>
<linearGradient id="paint0_linear" x1="58.6667" y1="5.33337" x2="5.33337" y2="58.6667" gradientUnits="userSpaceOnUse">
<stop stop-color="#71A141"/>
<stop offset="1" stop-color="#378737"/>
</linearGradient>
</defs>
</svg>
