<svg width="25" height="24" viewBox="0 0 25 24" fill="none" xmlns="http://www.w3.org/2000/svg">
<path d="M22.97 18.8199L21.97 14.9599L18.82 3.36991C18.7519 3.11425 18.5853 2.89598 18.3567 2.76291C18.128 2.62983 17.8559 2.5928 17.6 2.65991L13.73 3.65991C13.6376 3.55755 13.5251 3.4754 13.3995 3.41861C13.2739 3.36182 13.1379 3.33162 13 3.32991H3C2.73478 3.32991 2.48043 3.43527 2.29289 3.6228C2.10536 3.81034 2 4.06469 2 4.32991V20.3299C2 20.5951 2.10536 20.8495 2.29289 21.037C2.48043 21.2246 2.73478 21.3299 3 21.3299H13C13.2652 21.3299 13.5196 21.2246 13.7071 21.037C13.8946 20.8495 14 20.5951 14 20.3299V12.3299L16.2 20.5499C16.2586 20.7681 16.3893 20.96 16.5709 21.0943C16.7525 21.2287 16.9742 21.2976 17.2 21.2899C17.2864 21.2997 17.3736 21.2997 17.46 21.2899L22.29 19.9999C22.4177 19.9658 22.5374 19.9067 22.6421 19.826C22.7468 19.7453 22.8344 19.6447 22.9 19.5299C23.0055 19.3087 23.0302 19.0575 22.97 18.8199ZM6.97 19.3699H3.97V17.3699H6.97V19.3699ZM6.97 15.3699H3.97V9.36991H6.97V15.3699ZM6.97 7.36991H3.97V5.36991H6.97V7.36991ZM11.97 19.3699H8.97V17.3699H11.97V19.3699ZM11.97 15.3699H8.97V9.36991H11.97V15.3699ZM11.97 7.36991H8.97V5.36991H11.97V7.36991ZM14.22 5.62991L17.12 4.84991L17.64 6.77991L14.74 7.55991L14.22 5.62991ZM16.81 15.2899L15.26 9.48991L18.16 8.70991L19.71 14.5099L16.81 15.2899ZM17.81 19.1499L17.29 17.2199L20.19 16.4399L20.71 18.3699L17.81 19.1499Z" fill="#606F90"/>
</svg>
