<svg width="21" height="20" viewBox="0 0 21 20" fill="none" xmlns="http://www.w3.org/2000/svg">
<path d="M20 7.67C19.9368 7.48709 19.822 7.32643 19.6693 7.2075C19.5167 7.08858 19.3328 7.0165 19.14 7L13.45 6.17L10.9 1C10.8181 0.830929 10.6902 0.688342 10.5311 0.588574C10.3719 0.488805 10.1878 0.43589 9.99998 0.43589C9.81212 0.43589 9.62806 0.488805 9.46889 0.588574C9.30971 0.688342 9.18186 0.830929 9.09998 1L6.54998 6.16L0.859977 7C0.6749 7.02631 0.500902 7.10396 0.357728 7.22416C0.214554 7.34435 0.107937 7.50227 0.0499774 7.68C-0.00307759 7.85367 -0.00783865 8.03852 0.0362052 8.21469C0.080249 8.39087 0.171435 8.55173 0.299977 8.68L4.42998 12.68L3.42998 18.36C3.3896 18.5484 3.40453 18.7445 3.47296 18.9246C3.54139 19.1048 3.66041 19.2613 3.81571 19.3754C3.971 19.4895 4.15595 19.5563 4.34831 19.5677C4.54066 19.5792 4.73224 19.5348 4.89998 19.44L9.99998 16.77L15.1 19.44C15.2403 19.5192 15.3988 19.5605 15.56 19.56C15.7718 19.5608 15.9784 19.4942 16.15 19.37C16.3051 19.2589 16.4252 19.1056 16.4961 18.9285C16.567 18.7513 16.5857 18.5575 16.55 18.37L15.55 12.69L19.68 8.69C19.8244 8.56768 19.9311 8.4069 19.9877 8.22635C20.0444 8.04579 20.0486 7.85287 20 7.67ZM13.85 11.67C13.7342 11.7824 13.6474 11.9211 13.5969 12.0744C13.5464 12.2276 13.5337 12.3908 13.56 12.55L14.28 16.75L10.52 14.75C10.3738 14.6777 10.213 14.6401 10.05 14.6401C9.88694 14.6401 9.72611 14.6777 9.57998 14.75L5.81998 16.75L6.53998 12.55C6.56622 12.3908 6.55354 12.2276 6.50305 12.0744C6.45255 11.9211 6.36572 11.7824 6.24998 11.67L3.24998 8.67L7.45998 8.06C7.62198 8.03747 7.77598 7.97554 7.90848 7.87965C8.04098 7.78376 8.14794 7.65684 8.21998 7.51L9.99998 3.7L11.88 7.52C11.952 7.66684 12.059 7.79376 12.1915 7.88965C12.324 7.98554 12.478 8.04747 12.64 8.07L16.85 8.68L13.85 11.67Z" fill="#606F90"/>
</svg>
