<svg width="14" height="18" viewBox="0 0 14 18" fill="none" xmlns="http://www.w3.org/2000/svg">
    <path d="M0.333008 8.99984C0.333008 9.22085 0.420805 9.43281 0.577086 9.58909C0.733366 9.74537 0.945327 9.83317 1.16634 9.83317H7.49134L5.57467 11.7415C5.49657 11.819 5.43457 11.9111 5.39226 12.0127C5.34996 12.1142 5.32818 12.2232 5.32818 12.3332C5.32818 12.4432 5.34996 12.5521 5.39226 12.6537C5.43457 12.7552 5.49657 12.8474 5.57467 12.9248C5.65214 13.0029 5.74431 13.0649 5.84586 13.1072C5.94741 13.1496 6.05633 13.1713 6.16634 13.1713C6.27635 13.1713 6.38527 13.1496 6.48682 13.1072C6.58837 13.0649 6.68054 13.0029 6.75801 12.9248L10.0913 9.5915C10.1672 9.51225 10.2267 9.4188 10.2663 9.3165C10.3497 9.11362 10.3497 8.88605 10.2663 8.68317C10.2267 8.58088 10.1672 8.48742 10.0913 8.40817L6.75801 5.07484C6.68031 4.99714 6.58807 4.9355 6.48655 4.89345C6.38503 4.8514 6.27622 4.82976 6.16634 4.82976C6.05646 4.82976 5.94765 4.8514 5.84613 4.89345C5.74461 4.9355 5.65237 4.99714 5.57467 5.07484C5.49697 5.15254 5.43534 5.24478 5.39329 5.3463C5.35124 5.44781 5.3296 5.55662 5.3296 5.6665C5.3296 5.77639 5.35124 5.88519 5.39329 5.98671C5.43534 6.08823 5.49697 6.18047 5.57467 6.25817L7.49134 8.1665H1.16634C0.945327 8.1665 0.733366 8.2543 0.577086 8.41058C0.420805 8.56686 0.333008 8.77882 0.333008 8.99984ZM11.1663 0.666504H2.83301C2.16997 0.666504 1.53408 0.929896 1.06524 1.39874C0.5964 1.86758 0.333008 2.50346 0.333008 3.1665V5.6665C0.333008 5.88752 0.420805 6.09948 0.577086 6.25576C0.733366 6.41204 0.945327 6.49984 1.16634 6.49984C1.38735 6.49984 1.59932 6.41204 1.7556 6.25576C1.91188 6.09948 1.99967 5.88752 1.99967 5.6665V3.1665C1.99967 2.94549 2.08747 2.73353 2.24375 2.57725C2.40003 2.42097 2.61199 2.33317 2.83301 2.33317H11.1663C11.3874 2.33317 11.5993 2.42097 11.7556 2.57725C11.9119 2.73353 11.9997 2.94549 11.9997 3.1665V14.8332C11.9997 15.0542 11.9119 15.2661 11.7556 15.4224C11.5993 15.5787 11.3874 15.6665 11.1663 15.6665H2.83301C2.61199 15.6665 2.40003 15.5787 2.24375 15.4224C2.08747 15.2661 1.99967 15.0542 1.99967 14.8332V12.3332C1.99967 12.1122 1.91188 11.9002 1.7556 11.7439C1.59932 11.5876 1.38735 11.4998 1.16634 11.4998C0.945327 11.4998 0.733366 11.5876 0.577086 11.7439C0.420805 11.9002 0.333008 12.1122 0.333008 12.3332V14.8332C0.333008 15.4962 0.5964 16.1321 1.06524 16.6009C1.53408 17.0698 2.16997 17.3332 2.83301 17.3332H11.1663C11.8294 17.3332 12.4653 17.0698 12.9341 16.6009C13.4029 16.1321 13.6663 15.4962 13.6663 14.8332V3.1665C13.6663 2.50346 13.4029 1.86758 12.9341 1.39874C12.4653 0.929896 11.8294 0.666504 11.1663 0.666504Z" fill="#D9382B"/>
</svg>
