<svg width="20" height="20" viewBox="0 0 20 20" fill="none" xmlns="http://www.w3.org/2000/svg">
<path fill-rule="evenodd" clip-rule="evenodd" d="M5.37021 3.07117C6.74062 2.15549 8.35179 1.66675 9.99996 1.66675C11.0943 1.66675 12.1779 1.8823 13.189 2.30109C14.2 2.71987 15.1187 3.3337 15.8925 4.10752C16.6663 4.88135 17.2802 5.80001 17.699 6.81105C18.1177 7.8221 18.3333 8.90573 18.3333 10.0001C18.3333 11.6483 17.8446 13.2594 16.9289 14.6298C16.0132 16.0002 14.7117 17.0683 13.189 17.6991C11.6663 18.3298 9.99072 18.4948 8.37421 18.1733C6.7577 17.8517 5.27284 17.0581 4.10741 15.8926C2.94197 14.7272 2.1483 13.2423 1.82675 11.6258C1.50521 10.0093 1.67024 8.33377 2.30097 6.81105C2.9317 5.28834 3.9998 3.98685 5.37021 3.07117ZM13.3333 9.16675H10.8333V6.66675C10.8333 6.44573 10.7455 6.23377 10.5892 6.07749C10.4329 5.92121 10.221 5.83341 9.99996 5.83341C9.77895 5.83341 9.56698 5.92121 9.4107 6.07749C9.25442 6.23377 9.16663 6.44573 9.16663 6.66675V9.16675H6.66663C6.44561 9.16675 6.23365 9.25455 6.07737 9.41083C5.92109 9.56711 5.83329 9.77907 5.83329 10.0001C5.83329 10.2211 5.92109 10.4331 6.07737 10.5893C6.23365 10.7456 6.44561 10.8334 6.66663 10.8334H9.16663V13.3334C9.16663 13.5544 9.25442 13.7664 9.4107 13.9227C9.56698 14.079 9.77895 14.1667 9.99996 14.1667C10.221 14.1667 10.4329 14.079 10.5892 13.9227C10.7455 13.7664 10.8333 13.5544 10.8333 13.3334V10.8334H13.3333C13.5543 10.8334 13.7663 10.7456 13.9225 10.5893C14.0788 10.4331 14.1666 10.2211 14.1666 10.0001C14.1666 9.77907 14.0788 9.56711 13.9225 9.41083C13.7663 9.25455 13.5543 9.16675 13.3333 9.16675Z" fill="#3691FA"/>
</svg>
