<svg width="25" height="24" viewBox="0 0 25 24" fill="none" xmlns="http://www.w3.org/2000/svg">
<path d="M3.5 8.99988C3.76522 8.99988 4.01957 8.89452 4.20711 8.70698C4.39464 8.51945 4.5 8.26509 4.5 7.99988V4.99988C4.5 4.73466 4.60536 4.48031 4.79289 4.29277C4.98043 4.10523 5.23478 3.99988 5.5 3.99988H8.5C8.76522 3.99988 9.01957 3.89452 9.20711 3.70698C9.39464 3.51945 9.5 3.26509 9.5 2.99988C9.5 2.73466 9.39464 2.48031 9.20711 2.29277C9.01957 2.10523 8.76522 1.99988 8.5 1.99988H5.5C4.70435 1.99988 3.94129 2.31595 3.37868 2.87856C2.81607 3.44117 2.5 4.20423 2.5 4.99988V7.99988C2.5 8.26509 2.60536 8.51945 2.79289 8.70698C2.98043 8.89452 3.23478 8.99988 3.5 8.99988ZM8.5 19.9999H5.5C5.23478 19.9999 4.98043 19.8945 4.79289 19.707C4.60536 19.5194 4.5 19.2651 4.5 18.9999V15.9999C4.5 15.7347 4.39464 15.4803 4.20711 15.2928C4.01957 15.1052 3.76522 14.9999 3.5 14.9999C3.23478 14.9999 2.98043 15.1052 2.79289 15.2928C2.60536 15.4803 2.5 15.7347 2.5 15.9999V18.9999C2.5 19.7955 2.81607 20.5586 3.37868 21.1212C3.94129 21.6838 4.70435 21.9999 5.5 21.9999H8.5C8.76522 21.9999 9.01957 21.8945 9.20711 21.707C9.39464 21.5194 9.5 21.2651 9.5 20.9999C9.5 20.7347 9.39464 20.4803 9.20711 20.2928C9.01957 20.1052 8.76522 19.9999 8.5 19.9999ZM17.5 12.9999C17.7652 12.9999 18.0196 12.8945 18.2071 12.707C18.3946 12.5194 18.5 12.2651 18.5 11.9999C18.5 11.7347 18.3946 11.4803 18.2071 11.2928C18.0196 11.1052 17.7652 10.9999 17.5 10.9999H16.36C16.1804 10.312 15.8208 9.68444 15.3181 9.18176C14.8154 8.67907 14.1879 8.31944 13.5 8.13988V6.99988C13.5 6.73466 13.3946 6.48031 13.2071 6.29277C13.0196 6.10524 12.7652 5.99988 12.5 5.99988C12.2348 5.99988 11.9804 6.10524 11.7929 6.29277C11.6054 6.48031 11.5 6.73466 11.5 6.99988V8.13988C10.8121 8.31944 10.1846 8.67907 9.68188 9.18176C9.17919 9.68444 8.81956 10.312 8.64 10.9999H7.5C7.23478 10.9999 6.98043 11.1052 6.79289 11.2928C6.60536 11.4803 6.5 11.7347 6.5 11.9999C6.5 12.2651 6.60536 12.5194 6.79289 12.707C6.98043 12.8945 7.23478 12.9999 7.5 12.9999H8.64C8.81956 13.6877 9.17919 14.3153 9.68188 14.818C10.1846 15.3207 10.8121 15.6803 11.5 15.8599V16.9999C11.5 17.2651 11.6054 17.5194 11.7929 17.707C11.9804 17.8945 12.2348 17.9999 12.5 17.9999C12.7652 17.9999 13.0196 17.8945 13.2071 17.707C13.3946 17.5194 13.5 17.2651 13.5 16.9999V15.8599C14.1879 15.6803 14.8154 15.3207 15.3181 14.818C15.8208 14.3153 16.1804 13.6877 16.36 12.9999H17.5ZM12.5 13.9999C12.1044 13.9999 11.7178 13.8826 11.3889 13.6628C11.06 13.4431 10.8036 13.1307 10.6522 12.7652C10.5009 12.3998 10.4613 11.9977 10.5384 11.6097C10.6156 11.2217 10.8061 10.8654 11.0858 10.5857C11.3655 10.306 11.7219 10.1155 12.1098 10.0383C12.4978 9.96114 12.8999 10.0007 13.2654 10.1521C13.6308 10.3035 13.9432 10.5598 14.1629 10.8887C14.3827 11.2176 14.5 11.6043 14.5 11.9999C14.5 12.5303 14.2893 13.039 13.9142 13.4141C13.5391 13.7892 13.0304 13.9999 12.5 13.9999ZM21.5 14.9999C21.2348 14.9999 20.9804 15.1052 20.7929 15.2928C20.6054 15.4803 20.5 15.7347 20.5 15.9999V18.9999C20.5 19.2651 20.3946 19.5194 20.2071 19.707C20.0196 19.8945 19.7652 19.9999 19.5 19.9999H16.5C16.2348 19.9999 15.9804 20.1052 15.7929 20.2928C15.6054 20.4803 15.5 20.7347 15.5 20.9999C15.5 21.2651 15.6054 21.5194 15.7929 21.707C15.9804 21.8945 16.2348 21.9999 16.5 21.9999H19.5C20.2956 21.9999 21.0587 21.6838 21.6213 21.1212C22.1839 20.5586 22.5 19.7955 22.5 18.9999V15.9999C22.5 15.7347 22.3946 15.4803 22.2071 15.2928C22.0196 15.1052 21.7652 14.9999 21.5 14.9999ZM19.5 1.99988H16.5C16.2348 1.99988 15.9804 2.10523 15.7929 2.29277C15.6054 2.48031 15.5 2.73466 15.5 2.99988C15.5 3.26509 15.6054 3.51945 15.7929 3.70698C15.9804 3.89452 16.2348 3.99988 16.5 3.99988H19.5C19.7652 3.99988 20.0196 4.10523 20.2071 4.29277C20.3946 4.48031 20.5 4.73466 20.5 4.99988V7.99988C20.5 8.26509 20.6054 8.51945 20.7929 8.70698C20.9804 8.89452 21.2348 8.99988 21.5 8.99988C21.7652 8.99988 22.0196 8.89452 22.2071 8.70698C22.3946 8.51945 22.5 8.26509 22.5 7.99988V4.99988C22.5 4.20423 22.1839 3.44117 21.6213 2.87856C21.0587 2.31595 20.2956 1.99988 19.5 1.99988Z" fill="#606F90"/>
</svg>
