<svg width="18" height="18" viewBox="0 0 18 18" fill="none" xmlns="http://www.w3.org/2000/svg">
<path d="M17.924 17.383C17.9997 17.2002 18.0195 16.9991 17.9809 16.8051C17.9423 16.6111 17.847 16.4329 17.707 16.293L16 14.586V9.00001C15.9981 7.31816 15.3906 5.69324 14.2889 4.42253C13.1871 3.15182 11.6646 2.32026 10 2.08V0.999999C10 0.734782 9.89467 0.480428 9.70714 0.292892C9.5196 0.105355 9.26525 -1.90735e-06 9.00003 -1.90735e-06C8.73481 -1.90735e-06 8.48046 0.105355 8.29292 0.292892C8.10539 0.480428 8.00003 0.734782 8.00003 0.999999V2.08C6.33543 2.32026 4.81298 3.15182 3.71121 4.42253C2.60944 5.69324 2.002 7.31816 2.00003 9.00001V14.586L0.293031 16.293C0.153222 16.4329 0.0580152 16.611 0.0194476 16.805C-0.0191199 16.9989 0.000683092 17.2 0.0763531 17.3827C0.152023 17.5654 0.280163 17.7215 0.444573 17.8314C0.608982 17.9413 0.802281 18 1.00003 18H17C17.1978 18.0001 17.3911 17.9415 17.5556 17.8316C17.7201 17.7218 17.8483 17.5657 17.924 17.383ZM3.41403 16L3.70703 15.707C3.89458 15.5195 3.99997 15.2652 4.00003 15V9.00001C4.00003 7.67392 4.52682 6.40215 5.4645 5.46447C6.40218 4.52679 7.67395 4 9.00003 4C10.3261 4 11.5979 4.52679 12.5356 5.46447C13.4732 6.40215 14 7.67392 14 9.00001V15C14.0001 15.2652 14.1055 15.5195 14.293 15.707L14.586 16H3.41403Z" fill="#606F90"/>
</svg>
