<svg width="25" height="24" viewBox="0 0 25 24" fill="none" xmlns="http://www.w3.org/2000/svg">
<path d="M13.5 13.9999H9.5C9.23478 13.9999 8.98043 14.1052 8.79289 14.2928C8.60536 14.4803 8.5 14.7347 8.5 14.9999C8.5 15.2651 8.60536 15.5194 8.79289 15.707C8.98043 15.8945 9.23478 15.9999 9.5 15.9999H13.5C13.7652 15.9999 14.0196 15.8945 14.2071 15.707C14.3946 15.5194 14.5 15.2651 14.5 14.9999C14.5 14.7347 14.3946 14.4803 14.2071 14.2928C14.0196 14.1052 13.7652 13.9999 13.5 13.9999ZM17.5 3.99988H16.32C16.1137 3.41633 15.7319 2.91088 15.2271 2.55282C14.7222 2.19476 14.1189 2.00162 13.5 1.99988H11.5C10.8811 2.00162 10.2778 2.19476 9.77293 2.55282C9.26807 2.91088 8.88631 3.41633 8.68 3.99988H7.5C6.70435 3.99988 5.94129 4.31595 5.37868 4.87856C4.81607 5.44117 4.5 6.20423 4.5 6.99988V18.9999C4.5 19.7955 4.81607 20.5586 5.37868 21.1212C5.94129 21.6838 6.70435 21.9999 7.5 21.9999H17.5C18.2956 21.9999 19.0587 21.6838 19.6213 21.1212C20.1839 20.5586 20.5 19.7955 20.5 18.9999V6.99988C20.5 6.20423 20.1839 5.44117 19.6213 4.87856C19.0587 4.31595 18.2956 3.99988 17.5 3.99988ZM10.5 4.99988C10.5 4.73466 10.6054 4.48031 10.7929 4.29277C10.9804 4.10523 11.2348 3.99988 11.5 3.99988H13.5C13.7652 3.99988 14.0196 4.10523 14.2071 4.29277C14.3946 4.48031 14.5 4.73466 14.5 4.99988V5.99988H10.5V4.99988ZM18.5 18.9999C18.5 19.2651 18.3946 19.5194 18.2071 19.707C18.0196 19.8945 17.7652 19.9999 17.5 19.9999H7.5C7.23478 19.9999 6.98043 19.8945 6.79289 19.707C6.60536 19.5194 6.5 19.2651 6.5 18.9999V6.99988C6.5 6.73466 6.60536 6.48031 6.79289 6.29277C6.98043 6.10524 7.23478 5.99988 7.5 5.99988H8.5V6.99988C8.5 7.26509 8.60536 7.51945 8.79289 7.70698C8.98043 7.89452 9.23478 7.99988 9.5 7.99988H15.5C15.7652 7.99988 16.0196 7.89452 16.2071 7.70698C16.3946 7.51945 16.5 7.26509 16.5 6.99988V5.99988H17.5C17.7652 5.99988 18.0196 6.10524 18.2071 6.29277C18.3946 6.48031 18.5 6.73466 18.5 6.99988V18.9999ZM15.5 9.99988H9.5C9.23478 9.99988 8.98043 10.1052 8.79289 10.2928C8.60536 10.4803 8.5 10.7347 8.5 10.9999C8.5 11.2651 8.60536 11.5194 8.79289 11.707C8.98043 11.8945 9.23478 11.9999 9.5 11.9999H15.5C15.7652 11.9999 16.0196 11.8945 16.2071 11.707C16.3946 11.5194 16.5 11.2651 16.5 10.9999C16.5 10.7347 16.3946 10.4803 16.2071 10.2928C16.0196 10.1052 15.7652 9.99988 15.5 9.99988Z"/>
</svg>
